<svg id="Layer_1" data-name="Layer 1" xmlns="http://www.w3.org/2000/svg" viewBox="0 0 104.15 108.07"><defs><style>.cls-1{fill:#c69175;}.cls-2{fill:#f04d24;}.cls-3{fill:#ce3e27;}.cls-4{fill:#a0cf75;}.cls-5{fill:#80b155;}</style></defs><title>apple</title><path class="cls-1" d="M56.36,32.75l-5.15-.24.12-2.57c0-.21.76-21.65-13.49-24.39l-2.53-.49,1-5.06,2.53.49C46.65,2,52.19,7.71,54.84,17a45.58,45.58,0,0,1,1.64,13.14Z"/><path class="cls-2" d="M75.45,23.52c-8.28,0-15.83,1.86-21.55,6.54-5.72-4.68-13.27-6.54-21.55-6.54C14.48,23.52,0,32.17,0,59.18s26.64,48.89,39,48.89a14.3,14.3,0,0,0,8.66-3.39,10.21,10.21,0,0,1,12.48,0,14.31,14.31,0,0,0,8.67,3.39c6.66,0,17.47-6.36,26-16.45,5.28-6.24,9.19-16.78,9.32-19.54A15.94,15.94,0,0,1,99.52,70c-2.75-1.77-5.68-6.72-6.09-7.51a13.6,13.6,0,0,1-1-5.57A11.23,11.23,0,0,1,93.75,52a19.86,19.86,0,0,1,2.73-4.16h0a27.42,27.42,0,0,1-9-5.23c-2.69-2.26-4-8.66-2.84-12.8a34.71,34.71,0,0,1,2.82-5.56h0C86.55,23.42,77,23.52,75.45,23.52Z"/><path class="cls-3" d="M21.91,59.18c0-21.19,8.91-31.08,21.38-34.36a43,43,0,0,0-10.94-1.3C14.48,23.52,0,32.17,0,59.18s26.64,48.89,39,48.89a14.3,14.3,0,0,0,8.66-3.39,8.91,8.91,0,0,1,1.29-.84C36.39,96.21,21.91,79.08,21.91,59.18Z"/><path class="cls-4" d="M57.58,27l-3.68-.49.48-3.67A26.25,26.25,0,0,1,67.68,3.31,28.87,28.87,0,0,1,70.42,2,26.16,26.16,0,0,1,83.86.23l3.67.48-.48,3.67A26.16,26.16,0,0,1,84.85,12a26.64,26.64,0,0,1-1.32,2.48A26.09,26.09,0,0,1,76.79,22a25.75,25.75,0,0,1-3.08,2A26.15,26.15,0,0,1,57.58,27Z"/><path class="cls-5" d="M55.79,26.79l-1.89-.25.25-1.89L67.28,14.56l.4-11.25A28.87,28.87,0,0,1,70.42,2l-.36,10.45L85.64.46l1.89.25L87.29,2.6,77.15,10.39,84.85,12a26.64,26.64,0,0,1-1.32,2.48l-9.19-1.94-8.61,6.61L76.79,22a25.75,25.75,0,0,1-3.08,2L63,21.25Z"/></svg>